<svg width="98" height="69" viewBox="0 0 98 69" fill="none" xmlns="http://www.w3.org/2000/svg">
<path d="M63.8531 16.8448V33.6895L63.6464 33.6519C61.3342 33.1773 61.0586 33.1396 58.6852 32.9814C56.8094 32.8609 48.5253 32.8609 45.7844 32.9814C41.7802 33.1622 37.753 33.4409 36.2906 33.6443C34.3459 33.908 33.4119 34.36 31.9113 35.7688C29.3617 38.1644 27.8075 41.6449 27.218 46.2629C27.1567 46.7751 27.0648 48.1086 27.0266 49.231C26.9806 50.346 26.9347 51.3555 26.927 51.4685L26.9117 51.6794L26.3069 51.4157C24.4464 50.6172 19.6766 47.6565 19.6766 47.3025C19.6766 47.0313 23.8569 41.6524 24.8369 40.658C25.0359 40.4621 25.2427 40.3039 25.3039 40.3039C25.3575 40.3039 25.6178 40.4244 25.8781 40.5751C26.1308 40.7258 26.3681 40.8237 26.3988 40.8011C26.4294 40.771 26.4677 40.2135 26.4753 39.5732L26.5059 38.4055L29.8134 34.586C33.3966 30.4577 36.4361 26.8944 36.972 26.1862C37.2323 25.8397 37.3166 25.6589 37.3472 25.3802C37.3778 25.0412 37.3625 24.996 37.1175 24.7549C36.7883 24.431 36.2906 24.2803 35.9767 24.4159C35.4178 24.6419 34.1009 26.2766 26.2303 36.5447L25.3345 37.7199L24.7067 37.7727C24.3622 37.7953 23.742 37.8179 23.3363 37.8179C22.8845 37.8179 22.5783 37.848 22.54 37.9007C22.517 37.9459 22.5936 38.0891 22.7238 38.2171C23.0683 38.5788 23.4281 39.1061 23.4281 39.2492C23.4281 39.5882 18.0228 45.8033 17.7242 45.8033C17.395 45.8033 15.2206 44.1158 8.9425 38.978C5.62734 36.2585 4.40234 35.2866 3.80516 34.8949C3.52953 34.7141 3.51422 34.7141 3.19266 34.8346C2.68734 35.023 2.03656 35.5729 1.8375 35.9722C1.50063 36.6577 1.715 37.3885 2.695 38.8123C3.7975 40.432 9.85359 48.1538 11.4844 50.022C11.8213 50.4138 12.1581 50.8432 12.2194 50.9713C12.2806 51.0993 12.4491 51.3178 12.5945 51.4534C12.74 51.5965 12.8625 51.7397 12.8625 51.7773C12.8625 51.8828 11.6758 53.2464 9.32531 55.868L7.27344 58.1431L5.19094 58.1808C3.46063 58.2109 2.98594 58.241 2.40406 58.3691C1.40875 58.5951 0.719688 58.8814 0.329219 59.2505C0.0459375 59.5217 0 59.6046 0 59.8758C0 60.0943 0.0535938 60.2449 0.18375 60.3956C0.344531 60.5764 0.421094 60.599 0.780938 60.599C1.00297 60.5915 1.50063 60.5011 1.87578 60.3956C3.00125 60.0717 3.65969 59.9587 4.70859 59.9135L5.70391 59.8758L5.39766 60.1922C5.05313 60.5463 4.59375 60.7873 4.24922 60.7949C3.85875 60.7949 3.46828 60.938 3.21563 61.1715C2.97828 61.39 2.97063 61.4126 3.03188 61.7968C3.0625 62.0078 3.10078 62.731 3.10844 63.3939C3.11609 64.0568 3.13141 64.6897 3.13141 64.8027C3.13906 65.0437 3.50656 65.4807 3.90469 65.7293C4.31813 65.9854 4.76984 66.1135 5.74219 66.2566C7.39594 66.4902 8.46781 66.7388 11.2547 67.5222C14.1794 68.3509 15.2206 68.5166 17.2572 68.4564C18.7884 68.4187 19.5234 68.3057 21.9198 67.7633C25.0895 67.0476 26.5595 66.8593 28.5042 66.9196C30.1809 66.9723 30.7781 67.1004 33.2511 67.914C35.8006 68.7502 36.2447 68.8557 37.5616 68.9084C39.1694 68.9762 40.9839 68.7803 44.1383 68.2002C45.593 67.929 45.7461 67.914 47.1625 67.9215C48.7627 67.929 51.0519 68.1023 57.1539 68.6748C62.5286 69.1796 62.6128 69.1721 65.928 68.1098C67.8191 67.5072 68.4163 67.3942 69.4422 67.4469C70.0241 67.477 70.4681 67.5524 71.05 67.7256C73.4847 68.4338 73.7297 68.4865 74.7709 68.5317C75.9577 68.5844 76.5166 68.5016 79.1656 67.914C81.3859 67.4168 82.4042 67.2284 83.1469 67.1606C83.8436 67.1004 84.7777 67.2134 87.7559 67.7181L89.9303 68.0872L92.8397 67.7181C98.0077 67.0702 98 67.0702 98 66.2189C98 65.8121 97.977 65.7594 97.7933 65.6389C97.3722 65.3677 96.3616 65.4129 93.2531 65.8498C90.3284 66.2566 89.5475 66.2415 86.3625 65.669C84.9538 65.4204 84.4638 65.3601 83.6828 65.3601C82.6492 65.3601 82.4272 65.3903 79.6173 65.9929C77.2056 66.5128 75.7816 66.7538 75.1078 66.7538C74.4417 66.7538 73.5613 66.573 71.9841 66.1135C70.4911 65.6765 69.8863 65.5861 68.7378 65.6389C67.6889 65.6841 66.8467 65.8799 64.7336 66.5956C62.4673 67.364 62.3066 67.3791 59.4891 67.0853C57.3377 66.8593 53.2798 66.4902 51.5266 66.3545C50.8298 66.3018 49.0613 66.2566 47.5836 66.2566C44.7355 66.2566 44.5517 66.2717 42.2242 66.7011C40.7313 66.9798 39.5063 67.0702 37.7453 67.025C35.992 66.9874 36.0609 67.0024 33.9938 66.2641C31.5284 65.3752 30.2345 65.1341 27.9453 65.1341C25.8169 65.1341 24.6684 65.2923 21.5906 65.9929C16.9203 67.0627 15.3355 66.9798 10.4738 65.4204C9.26406 65.0287 9.065 64.9081 9.14156 64.6068C9.17219 64.4938 9.24875 64.3808 9.31766 64.3582C9.37891 64.3356 9.89188 64.4185 10.4431 64.5465C12.1275 64.9383 13.1228 65.0437 15.3125 65.0437C17.5252 65.0437 17.9845 64.9759 20.557 64.2979C23.6578 63.4768 24.6914 63.2809 25.9241 63.2809C27.3634 63.2809 28.6956 63.5822 31.6586 64.5616C34.0627 65.3601 34.7517 65.5183 36.2064 65.6238C38.1434 65.7669 38.9856 65.6765 41.4203 65.0965C45.0341 64.2301 47.3233 64.2301 53.4789 65.0889C54.658 65.2547 56.2275 65.4581 56.9625 65.5485C58.6698 65.7443 61.7247 65.8272 62.6358 65.6916C63.0033 65.6389 64.0675 65.3526 65.1164 65.0136C67.6506 64.2 68.5311 64.0116 69.7867 64.0041C70.9122 63.9966 71.2797 64.0644 72.3133 64.4863C73.8675 65.1266 75.1767 65.3601 76.6773 65.2923C77.9483 65.2245 78.9742 65.0136 80.7734 64.4486C83.0933 63.7178 83.5756 63.6726 85.0609 64.0719C87.0516 64.6068 86.9597 64.5917 90.3055 64.5993C93.7431 64.5993 93.8503 64.5842 95.6648 64.0342C97.2803 63.537 97.6172 63.3261 97.6172 62.7837C97.6172 62.5351 97.4258 62.1735 97.242 62.0756C96.9664 61.9324 96.4228 62.0002 95.083 62.3317C92.8933 62.8741 92.4492 62.9344 90.4969 62.9419C88.5369 62.9419 87.8402 62.859 85.6734 62.3618C83.4914 61.8646 82.9095 61.9098 80.0844 62.7837C77.7339 63.5069 77.42 63.5521 75.7892 63.4316C74.5106 63.3412 73.967 63.2056 72.6119 62.6707C71.3103 62.1584 71.0117 62.1132 69.4116 62.2187C67.7808 62.3242 67.3444 62.4146 65.3461 63.0549C61.518 64.2829 61.1352 64.2979 54.5125 63.4014C47.2467 62.4146 44.8427 62.392 41.2902 63.2734C37.4544 64.2301 36.4667 64.1849 32.4242 62.9042C28.8488 61.7742 27.6467 61.5181 25.8781 61.5256C24.5383 61.5331 23.5966 61.6687 21.8969 62.1132C21.3303 62.2564 20.4652 62.4824 19.9828 62.6104C18.3903 63.0248 17.0275 63.2131 15.3814 63.2583C13.7966 63.3035 12.9314 63.2357 11.5992 62.972C10.3359 62.7234 10.2441 62.6858 10.2977 62.4598C10.3206 62.3543 10.4814 61.9852 10.6498 61.6461C10.8719 61.1866 11.002 61.0133 11.1322 60.9757C11.2317 60.9531 11.8519 61.0585 12.5103 61.2092C14.4244 61.6461 15.5269 61.7818 17.15 61.7818C19.2784 61.7818 19.5694 61.7215 20.9475 60.9229C22.1802 60.2073 23.2061 59.9888 25.0359 60.0641C26.1997 60.1169 26.5519 60.1771 28.2363 60.6743C28.7569 60.825 29.2928 60.9455 29.4306 60.9455C29.6067 60.9455 29.6909 60.9907 29.7445 61.1113C29.8441 61.3373 30.4489 61.6235 31.582 62.0002C33.1898 62.5276 34.0244 62.6858 35.4944 62.731C37.5616 62.7988 38.7253 62.5426 41.0375 61.5256C42.9439 60.6894 43.6559 60.5011 45.1413 60.4408C46.7797 60.373 47.6908 60.5387 50.4853 61.3975C52.9353 62.1584 54.6273 62.4372 56.3117 62.3543C57.2305 62.3016 58.5473 62.1057 59.3359 61.8872C59.5656 61.8194 60.3236 61.7366 61.0203 61.6989C62.697 61.6085 64.6341 61.3373 65.9203 61.0209C67.3367 60.6743 68.6306 60.4709 70.4988 60.3052C72.252 60.147 72.9411 60.0641 73.9211 59.8758C74.6944 59.7327 74.8475 59.7251 75.7509 59.808C76.7922 59.9059 78.9283 60.26 80.7352 60.6367C83.6598 61.2469 84.0197 61.2845 86.8219 61.2845C89.7466 61.2845 91.607 61.1339 93.8886 60.712C95.527 60.4107 96.1089 60.1395 96.2084 59.6197C96.262 59.3183 96.1319 58.9416 95.9252 58.8362C95.6802 58.7006 94.8763 58.7533 93.1153 59.0245C90.7648 59.371 90.2978 59.4238 88.6747 59.5142C86.5922 59.6197 84.2723 59.469 82.0597 59.0697C81.3706 58.9416 78.0095 58.2636 77.8411 58.2109C77.8028 58.2034 78.2316 57.887 78.7905 57.5178C81.4855 55.7324 86.4467 51.815 91.4156 47.536C94.4705 44.9144 95.8563 43.4604 95.8563 42.9029C95.8563 42.5715 95.4505 41.7955 95.1289 41.5168C94.8686 41.2908 94.8609 41.2908 94.5777 41.4113C94.0341 41.6298 91.6836 42.805 86.3625 45.5246C77.2439 50.1727 73.3622 52.1013 73.278 52.0184C73.2627 51.9958 73.3086 51.8376 73.3775 51.6568C73.6148 51.0391 73.7297 50.2857 73.7833 49.0804C73.8905 46.3081 73.4234 44.3418 72.0453 41.6599C71.1036 39.8444 70.4528 38.9856 68.5158 37.0269L67.4745 35.9722L67.4209 28.3634C67.2755 6.8027 67.1836 0.685545 66.9998 0.203404C66.9156 1.53476e-06 66.7395 -0.0677994 66.6477 0.0828694C66.4792 0.34654 66.4409 3.11885 66.395 18.5021L66.3414 35.2414L65.7289 34.8874L65.1164 34.5258L65.0934 17.2666L65.0781 1.53476e-06H64.4656H63.8531V16.8448ZM51.3734 34.1792C51.7027 34.5408 53.1191 37.1022 53.0348 37.1851C53.0195 37.2001 51.8711 37.1851 50.4853 37.1399C49.0995 37.1022 47.775 37.0645 47.5453 37.0645H47.1242L46.8256 36.4167C46.6572 36.0626 46.2744 35.4072 45.9681 34.9476C45.6619 34.4956 45.4475 34.1265 45.5011 34.119C46.527 34.0436 49.712 33.9156 50.3322 33.9306C51.1514 33.9532 51.1744 33.9532 51.3734 34.1792ZM57.1769 34.4504C57.6516 34.9853 58.3713 35.9194 59.0144 36.8235L59.3436 37.2905H56.9319H54.5202L54.2598 36.8536C54.1067 36.6201 53.8694 36.1681 53.7239 35.8592C53.5784 35.5503 53.2875 34.9928 53.0655 34.6237C52.8511 34.2546 52.675 33.9457 52.675 33.9306C52.675 33.9156 53.5784 33.9005 54.6886 33.908H56.6945L57.1769 34.4504ZM60.5227 34.247C61.8089 34.4052 62.6281 34.571 62.8808 34.7141C63.0033 34.7894 63.21 35.0079 63.3478 35.2188C63.7459 35.814 64.435 37.1248 64.3738 37.1775C64.3508 37.2077 63.5009 37.2453 62.498 37.2679L60.6758 37.3056L59.5809 35.6708L58.4861 34.0361L59.045 34.0888C59.3513 34.1114 60.0173 34.1868 60.5227 34.247ZM44.9345 35.5126C45.3633 36.153 45.7308 36.7406 45.7384 36.8159C45.7461 36.9289 45.6695 36.9591 45.325 37.0043C44.6972 37.0721 41.8031 37.0721 41.4816 36.9967C41.2978 36.9515 41.0222 36.7707 40.7159 36.5071C40.4556 36.2735 40.157 36.0626 40.0575 36.0324C39.9503 36.0098 39.7513 35.8592 39.6058 35.701C39.4527 35.5352 39.0775 35.249 38.7713 35.0606C38.4573 34.8723 38.22 34.684 38.243 34.6538C38.3272 34.5258 40.5169 34.3902 43.0664 34.3676L44.1383 34.3525L44.9345 35.5126ZM36.2983 35.0305C36.7959 35.1812 37.9827 35.8441 38.0363 35.9948C38.0745 36.1078 37.6841 36.2961 37.217 36.3941C36.7041 36.4995 34.323 36.3263 33.3889 36.1153C33.2128 36.0776 33.2205 36.0626 33.542 35.8516C34.4148 35.2716 35.2341 34.9024 35.6858 34.8874C35.7547 34.8798 36.0303 34.9476 36.2983 35.0305ZM65.8361 36.3112C66.1347 36.5146 66.6017 36.8461 66.862 37.0419L67.3367 37.4035L66.8008 37.4261C66.0888 37.4563 65.9509 37.4111 65.7289 37.0796C65.4916 36.718 65.1394 35.9345 65.2159 35.9345C65.2542 35.9345 65.5298 36.1003 65.8361 36.3112ZM34.1622 37.3809L35.747 37.5467L35.502 37.7576C34.9967 38.1945 34.6598 38.3452 34.0627 38.3904C33.5114 38.4356 31.4519 38.3151 31.3141 38.2322C31.2298 38.1795 31.7198 37.4864 31.9495 37.3282C32.1639 37.1775 32.3017 37.1851 34.1622 37.3809ZM40.2183 37.8857C40.3867 37.9233 40.5858 38.0288 40.6623 38.1117C40.7466 38.2021 40.8997 38.2699 40.9992 38.2699C41.3055 38.2699 41.2213 38.413 40.8308 38.5863C40.5245 38.7219 40.3102 38.7445 39.5063 38.7445C38.978 38.752 38.0363 38.7068 37.4084 38.6466L36.2753 38.5486L36.528 38.3301C36.8113 38.0966 37.1405 37.9083 37.4391 37.8103C37.6688 37.7275 39.8125 37.7953 40.2183 37.8857ZM45.9298 38.187C46.3816 38.2548 46.5653 38.4055 46.8563 38.9856L47.0094 39.2869L46.4964 39.3472C46.2055 39.3773 45.3939 39.3924 44.6742 39.3848L43.3803 39.3622L42.8903 38.737L42.408 38.1192L43.9622 38.1267C44.8197 38.1267 45.7002 38.1569 45.9298 38.187ZM53.3334 38.4281C53.7239 38.5336 53.8847 38.6842 53.9766 39.0308C54.122 39.543 54.0991 39.5506 52.8358 39.5054C49.0613 39.3698 48.4794 39.3396 48.3263 39.2568C48.242 39.2116 48.1042 38.9931 48.02 38.7822L47.8669 38.3829L48.7627 38.3377C49.9953 38.2699 52.9659 38.3301 53.3334 38.4281ZM58.6469 38.4205C59.7264 38.5185 59.9714 38.6315 60.2777 39.1588L60.4997 39.5506H58.1722C56.8859 39.5506 55.7298 39.5129 55.5844 39.4752C55.3394 39.4074 55.2934 39.3547 55.1633 38.9705C55.0791 38.7294 55.0102 38.4959 55.0102 38.4582C55.0102 38.413 55.148 38.3678 55.3164 38.3452C55.7681 38.2925 57.6363 38.3301 58.6469 38.4205ZM64.9403 38.5712C65.1623 38.6315 65.2542 38.7144 65.3767 38.9705C65.4609 39.1438 65.5452 39.3698 65.5528 39.4752L65.5758 39.6636L64.6953 39.6862C63.5545 39.7163 62.1841 39.5958 61.8931 39.4526C61.7017 39.3547 61.25 38.7144 61.25 38.5411C61.25 38.4658 64.6417 38.4959 64.9403 38.5712ZM68.4009 38.6466C68.6689 38.7822 69.4422 39.5882 69.4422 39.7314C69.4422 39.8218 67.2602 39.7766 67.0688 39.6786C66.862 39.5732 66.4945 38.7897 66.5634 38.6014C66.5941 38.5185 66.7855 38.4959 67.352 38.4959C67.9416 38.4959 68.1559 38.526 68.4009 38.6466ZM33.4808 39.528C33.7488 39.5656 33.7717 39.5882 33.7258 39.769C33.6339 40.1231 33.4195 40.4018 33.1898 40.4696C32.9678 40.5299 30.6403 40.4169 30.2652 40.3265C30.1656 40.3039 30.0891 40.2361 30.0891 40.1758C30.0891 39.9574 30.357 39.6184 30.5867 39.5581C30.8547 39.4752 33.052 39.4526 33.4808 39.528ZM38.0516 39.8444C38.7023 39.8971 39.2459 39.9498 39.2613 39.9649C39.2842 39.98 39.1847 40.1306 39.0545 40.2964C38.8861 40.5073 38.7253 40.6128 38.5416 40.6504C38.1281 40.7258 35.2111 40.6429 34.9738 40.545C34.6905 40.432 34.7058 40.3114 35.0503 39.9875C35.4791 39.5882 35.5327 39.5732 36.237 39.6711C36.5816 39.7163 37.4008 39.7992 38.0516 39.8444ZM42.0711 40.0779C42.2089 40.0779 42.4003 40.1382 42.4998 40.221C42.6683 40.3566 42.6683 40.3642 42.5458 40.5525C42.3697 40.8237 41.9945 40.9066 40.9303 40.9066H40.0116L40.2413 40.673C40.3638 40.545 40.5552 40.3717 40.6777 40.2888C40.8844 40.1382 41.5198 39.995 41.7113 40.0478C41.7725 40.0628 41.9333 40.0779 42.0711 40.0779ZM47.3922 40.6655C47.6142 40.884 47.9664 41.8407 47.8745 41.9839C47.8133 42.0818 45.7767 41.9989 45.3633 41.8784C44.9498 41.7654 44.7431 41.562 44.4369 40.9593L44.1766 40.4546H45.6772H47.1778L47.3922 40.6655ZM54.7881 41.2833C54.903 41.7202 54.9336 41.9387 54.8723 41.9763C54.6273 42.127 49.9417 42.1345 49.3216 41.9839C49.1531 41.9462 49.0077 41.5846 48.8775 40.884L48.8316 40.6052L51.718 40.6203L54.612 40.6429L54.7881 41.2833ZM59.6575 40.7634L61.0892 40.8614L61.1658 41.0497C61.2041 41.1552 61.3266 41.4791 61.4338 41.7654L61.6328 42.2852L59.4738 42.24C57.1616 42.1948 56.618 42.127 56.3653 41.8633C56.2734 41.7654 56.0973 41.4415 55.9672 41.1401L55.7375 40.5826L56.9778 40.6278C57.6669 40.6504 58.8689 40.7182 59.6575 40.7634ZM66.395 41.449C66.5252 41.8483 66.5711 42.1044 66.5252 42.1496C66.4792 42.1948 65.7059 42.2325 64.6341 42.2475L62.8195 42.2777L62.6052 41.6449C62.4903 41.2983 62.3984 40.9895 62.3984 40.9669C62.3984 40.8765 62.7583 40.8539 64.4733 40.8388L66.2036 40.8313L66.395 41.449ZM69.1589 40.9367C70.0394 41.0121 70.3227 41.0648 70.4375 41.1703C70.583 41.2983 71.05 42.1873 71.05 42.3304C71.05 42.4585 70.338 42.5037 69.1742 42.4509L68.0028 42.3907L67.7655 41.7955C67.5281 41.2004 67.4822 40.9744 67.5817 40.884C67.6506 40.8162 67.8267 40.8237 69.1589 40.9367ZM30.7398 41.5093C31.3294 41.5469 31.9955 41.5997 32.2175 41.6298C32.6845 41.675 32.6692 41.5997 32.3783 42.579L32.2252 43.0913L31.4825 43.0837C31.0767 43.0762 30.38 43.0536 29.9359 43.0235C29.2622 42.9858 29.132 42.9557 29.1091 42.8502C29.0708 42.6468 29.4689 41.4339 29.5761 41.4339C29.6297 41.4339 30.1503 41.4716 30.7398 41.5093ZM37.3548 41.9537C37.4467 42.0893 37.3548 42.3153 37.0027 42.8803L36.727 43.3173H36.1069C35.1652 43.3173 33.5573 43.2269 33.4578 43.1666C33.4042 43.1365 33.4731 42.9029 33.6569 42.4585L33.9402 41.7955L35.6169 41.8257C36.9567 41.8407 37.3013 41.8709 37.3548 41.9537ZM40.8461 42.1195C40.9456 42.2174 40.938 42.2701 40.7925 42.5564C40.7083 42.7297 40.5245 42.9933 40.3944 43.129C40.18 43.355 40.1034 43.3776 39.5828 43.4228C39.2689 43.4529 38.7866 43.4454 38.5186 43.4152L38.0286 43.355L38.442 42.8125C39.0009 42.0743 39.2613 41.9462 40.1034 41.9839C40.5245 41.9989 40.7772 42.0441 40.8461 42.1195ZM43.7938 42.353C44.0234 42.5715 44.4369 43.468 44.345 43.5584C44.2608 43.6412 41.7648 43.6111 41.6883 43.5282C41.5581 43.4077 42.408 42.353 42.7219 42.24C42.7831 42.2174 43.0128 42.1948 43.2272 42.1948C43.5181 42.1873 43.6559 42.2249 43.7938 42.353ZM48.3875 43.4077C48.4334 43.5885 48.5253 43.9049 48.5866 44.1234C48.6402 44.3343 48.6938 44.5302 48.6938 44.5528C48.6938 44.5754 48.0736 44.598 47.3156 44.598H45.9452L45.8609 44.274C45.815 44.1008 45.7384 43.822 45.7002 43.6563C45.6542 43.4906 45.6083 43.2947 45.5853 43.2194C45.547 43.0988 45.6466 43.0913 46.9252 43.0913H48.3033L48.3875 43.4077ZM53.8388 43.3248C55.3777 43.4228 55.5844 43.5358 55.5844 44.2213C55.5844 44.6055 55.5691 44.6582 55.4159 44.7034C55.148 44.7712 52.7056 44.7562 51.3811 44.6733C50.5619 44.6206 50.1484 44.5678 50.0259 44.485C49.8269 44.3569 49.6891 43.9576 49.6891 43.4755V43.144L51.2433 43.1968C52.0931 43.2269 53.2645 43.2796 53.8388 43.3248ZM62.0386 43.9802C62.1152 44.3268 62.1611 44.6281 62.1305 44.6582C61.9391 44.8466 57.2994 44.824 56.9931 44.6356C56.8936 44.5678 56.8017 44.387 56.7405 44.1083C56.5644 43.3474 56.6486 43.3248 59.6422 43.3399L61.8931 43.355L62.0386 43.9802ZM67.1759 43.6714C67.3061 44.1234 67.3827 44.7712 67.2984 44.8541C67.1913 44.9596 64.0752 45.0198 63.7077 44.9219C63.5622 44.8842 63.4167 44.8089 63.3861 44.7486C63.2789 44.5302 63.1947 43.694 63.2713 43.6186C63.3172 43.5734 64.0828 43.5433 65.2389 43.5433C66.9769 43.5433 67.1377 43.5508 67.1759 43.6714ZM71.8692 44.1008C71.9611 44.3946 72.0453 44.6808 72.0453 44.7562C72.0453 44.9294 71.6166 44.9746 70.0088 44.9746H68.6842L68.6077 44.6884C68.5694 44.5377 68.4852 44.2138 68.4239 43.9727L68.3091 43.5433L69.9934 43.5584L71.6855 43.581L71.8692 44.1008ZM30.8011 44.2288C31.337 44.274 31.7964 44.3418 31.8117 44.3795C31.8347 44.4096 31.8117 44.6055 31.7658 44.824C31.6969 45.1253 31.6433 45.2232 31.4902 45.2835C31.2834 45.3588 28.8717 45.3814 28.6803 45.3061C28.5731 45.2684 28.5655 45.178 28.6038 44.7562C28.665 44.1234 28.7492 44.048 29.3617 44.1008C29.6144 44.1234 30.2575 44.1836 30.8011 44.2288ZM35.1805 44.4548C35.5633 44.5 35.9002 44.5603 35.9308 44.598C36.0227 44.6808 35.9078 45.178 35.7547 45.3739C35.6169 45.5321 35.5633 45.5397 34.323 45.5397C33.6186 45.5397 32.9831 45.5171 32.9142 45.4869C32.807 45.4417 32.7994 45.3814 32.8836 44.937C32.9372 44.6582 33.0291 44.3946 33.0903 44.3569C33.1975 44.2891 34.0014 44.3268 35.1805 44.4548ZM38.932 44.6055C39.1388 44.6432 39.3302 44.7185 39.3608 44.7637C39.445 44.8918 39.2077 45.4945 39.0239 45.615C38.9014 45.6979 38.6258 45.728 37.9214 45.728C37.4084 45.728 36.972 45.6979 36.9491 45.6677C36.8878 45.5698 37.2477 44.8767 37.4467 44.6959C37.73 44.4473 38.0056 44.4247 38.932 44.6055ZM42.6836 44.7562C43.3573 44.8692 43.3956 44.8993 43.2272 45.2684C42.9363 45.9013 42.6759 45.9917 41.4969 45.8787C40.8614 45.8184 40.6623 45.7732 40.5398 45.6527L40.3867 45.502L40.5398 45.2157C40.6241 45.0575 40.8078 44.8767 40.9609 44.8089C41.2748 44.6507 41.9716 44.6281 42.6836 44.7562ZM48.3569 45.8485L48.9005 45.8937L49 46.3231C49.0459 46.5567 49.1072 46.8203 49.1302 46.9107L49.1684 47.084L48.0353 47.0765C47.4075 47.0689 46.8103 47.0463 46.7031 47.0162C46.5423 46.971 46.5041 46.8881 46.3892 46.3382L46.2591 45.7129L47.04 45.7581C47.4611 45.7807 48.0583 45.8259 48.3569 45.8485ZM55.4925 45.9239C55.7145 45.9465 55.9136 46.0067 55.9289 46.0519C55.9442 46.1047 55.9748 46.406 55.9978 46.7375L56.0438 47.3251L53.3794 47.2949C51.695 47.2723 50.6461 47.2271 50.5159 47.1744C50.3092 47.0915 50.3092 47.0991 50.1025 46.0143L50.0642 45.8184L52.5755 45.8485C53.9536 45.8711 55.2705 45.9013 55.4925 45.9239ZM62.0845 46.0896C62.3984 46.1574 62.4367 46.2252 62.5363 46.858C62.5822 47.2045 62.5822 47.3627 62.5209 47.4079C62.4367 47.4682 60.6834 47.4381 58.3713 47.3326L57.2917 47.2874L57.1998 46.7149C57.1539 46.3985 57.1156 46.0971 57.1156 46.0369C57.1156 45.9465 57.4678 45.9389 59.4738 45.9841C60.7677 46.0143 61.9391 46.0595 62.0845 46.0896ZM67.5741 46.1875C67.643 46.2553 67.7578 46.5717 67.8344 46.8881L67.9645 47.4607H65.9663C64.8714 47.4607 63.9297 47.4305 63.8761 47.4004C63.8148 47.3627 63.6234 46.4211 63.6234 46.1423C63.6234 46.067 64.1288 46.0444 65.7059 46.0519C67.2066 46.067 67.4669 46.0821 67.5741 46.1875ZM72.2597 46.3005C72.4664 46.3382 72.4817 46.3759 72.5889 47.0162L72.7038 47.6867H72.1984C71.9228 47.6867 71.2031 47.649 70.6059 47.6113C69.1513 47.5209 69.0594 47.4607 68.9598 46.5642L68.9139 46.1574L70.4758 46.2101C71.3409 46.2327 72.1448 46.2779 72.2597 46.3005ZM29.9819 46.4889C30.6633 46.5341 31.2605 46.6019 31.3141 46.632C31.383 46.6772 31.3983 46.8881 31.3523 47.4908L31.2988 48.2894H29.7752H28.2516V47.3175V46.3382L28.5042 46.3683C28.6344 46.3909 29.3081 46.4437 29.9819 46.4889ZM34.9891 46.8203C35.1422 46.9559 35.1575 47.0162 35.1116 47.4607C35.0273 48.3647 35.1498 48.2894 33.7564 48.2894H32.5391V47.4531V46.6245L33.6798 46.6471C34.6905 46.6697 34.8359 46.6847 34.9891 46.8203ZM38.5339 46.8505L38.7253 46.9258L38.5798 47.5134C38.3655 48.3572 38.3195 48.3798 37.1634 48.3496C36.6505 48.3346 36.1988 48.3044 36.1681 48.2743C36.1222 48.2291 36.3978 47.0237 36.4973 46.8354C36.5433 46.7601 38.3119 46.7676 38.5339 46.8505ZM42.4156 47.0614C42.4156 47.0991 42.3314 47.4079 42.2319 47.762L42.0558 48.4024H40.9303C39.4909 48.4024 39.4986 48.4099 39.7513 47.4381C39.7972 47.2573 39.8814 47.1292 39.9886 47.084C40.1953 47.0011 42.4156 46.9861 42.4156 47.0614ZM45.4016 47.7997V48.44H44.322H43.2425L43.2961 48.1914C43.388 47.7469 43.6636 47.2799 43.8703 47.2271C43.9775 47.197 44.3603 47.1744 44.7355 47.1669L45.4016 47.1593V47.7997ZM48.6172 48.3647C49.2833 48.44 49.3828 48.5304 49.3828 49.0352C49.3828 49.2235 49.4364 49.8186 49.49 50.3611C49.5513 50.8959 49.5895 51.3479 49.5819 51.3555C49.5513 51.3931 46.7261 51.1596 46.5117 51.1069C46.3203 51.0617 46.3127 51.0315 46.3509 50.7829C46.3739 50.6323 46.4198 49.9994 46.4428 49.3817L46.4964 48.2442L47.2697 48.2743C47.6908 48.2894 48.3033 48.327 48.6172 48.3647ZM53.0578 48.3647C54.2981 48.4024 55.4925 48.4626 55.7145 48.4852L56.1127 48.5304L56.1892 49.0352C56.2811 49.6152 56.4266 50.911 56.4266 51.1897V51.3781H53.5172H50.6078V50.4891C50.6078 49.6906 50.5159 48.7564 50.4088 48.4174C50.3628 48.2668 50.1178 48.2668 53.0578 48.3647ZM62.6588 48.7188C62.7813 49.2913 62.8578 50.0597 62.8578 50.7679V51.5513L60.3925 51.5061C59.0297 51.4835 57.8583 51.4459 57.7894 51.4157C57.598 51.3404 57.5061 50.9939 57.4602 50.1124C57.4372 49.668 57.3989 49.1256 57.3836 48.9071L57.3453 48.5154H59.9791H62.6128L62.6588 48.7188ZM66.5481 48.6962C67.3827 48.7489 68.0794 48.8016 68.0947 48.8242C68.1177 48.8468 68.1559 49.4344 68.1866 50.1426C68.2325 51.2575 68.2248 51.4383 68.1177 51.5438C67.9875 51.6719 67.5817 51.6719 64.948 51.5589L63.9297 51.5137V50.022V48.5304L64.4886 48.5606C64.7872 48.5832 65.7213 48.6434 66.5481 48.6962ZM72.5583 49.7358C72.4741 50.2857 72.3516 50.9035 72.2827 51.1144C72.1219 51.5965 71.9917 51.6417 70.537 51.7095L69.4422 51.7623V51.137C69.4422 50.5117 69.3427 49.442 69.2431 48.9824L69.1972 48.7414H70.9505H72.7114L72.5583 49.7358ZM31.0844 49.5625C31.3217 49.6303 31.3906 49.9316 31.1916 50.0748C31.0002 50.2179 28.4123 50.2179 28.2209 50.0748C28.0219 49.9316 28.0908 49.6303 28.3281 49.5625C28.4353 49.5324 29.0555 49.5098 29.7063 49.5098C30.357 49.5098 30.9772 49.5324 31.0844 49.5625ZM34.6369 49.57C34.8819 49.6604 34.9125 49.9768 34.6905 50.0974C34.6063 50.1351 34.1239 50.1727 33.6109 50.1727C33.098 50.1727 32.6156 50.1351 32.5314 50.0974C32.3247 49.9844 32.34 49.6604 32.562 49.57C32.7917 49.4796 34.3919 49.4796 34.6369 49.57ZM37.9291 49.57C38.1817 49.6604 38.3272 49.9166 38.197 50.0672C38.1281 50.1501 37.8908 50.1727 37.1558 50.1727C36.6352 50.1727 36.1375 50.1351 36.0533 50.0974C35.8466 49.9844 35.8619 49.6604 36.0839 49.57C36.3136 49.4796 37.6841 49.4796 37.9291 49.57ZM41.65 49.6454C41.7572 49.8111 41.7419 49.9166 41.6041 50.0522C41.5122 50.1501 41.3055 50.1727 40.6088 50.1727C39.6364 50.1727 39.4297 50.1124 39.4297 49.8262C39.4297 49.555 39.6517 49.4947 40.6777 49.5173C41.382 49.5324 41.5964 49.555 41.65 49.6454ZM45.0034 49.5399C45.2408 49.6077 45.3173 49.9392 45.1336 50.0748C44.9345 50.2104 43.2655 50.2104 43.0664 50.0748C42.898 49.9467 42.9592 49.6002 43.1659 49.5474C43.365 49.4947 44.8044 49.4872 45.0034 49.5399ZM31.3141 51.7999C31.3141 52.7492 31.2528 52.7793 29.9666 52.4704C29.0555 52.2595 28.443 52.041 28.2439 51.8602C28.0448 51.6794 28.0525 51.3931 28.2745 51.3027C28.3664 51.2651 29.0861 51.2349 29.8823 51.2349L31.3141 51.2274V51.7999ZM34.6445 51.2952C34.7747 51.3479 34.813 51.4911 34.9125 52.3047C34.9738 52.832 35.0197 53.2916 35.0044 53.3368C34.9891 53.3744 34.8819 53.4121 34.7594 53.4121C34.3995 53.4121 33.1133 53.1334 32.853 52.9978C32.5314 52.8396 32.3859 52.4855 32.3859 51.8677C32.3859 51.4233 32.4013 51.363 32.562 51.3027C32.7688 51.2199 34.4302 51.2123 34.6445 51.2952ZM38.3808 51.8828C38.4038 52.2519 38.4956 52.8471 38.5875 53.2162C38.6794 53.5778 38.733 53.9018 38.71 53.9244C38.6488 53.9771 37.1252 53.8114 36.7347 53.7059C36.5739 53.6682 36.4131 53.5703 36.3748 53.495C36.2983 53.3669 35.9844 51.6794 35.9844 51.4308C35.9844 51.2651 36.1145 51.2425 37.2936 51.2349L38.3348 51.2274L38.3808 51.8828ZM41.7266 51.9581C41.7342 52.6211 41.8338 53.4272 41.9945 54.0449L42.0558 54.2634L41.2978 54.2257C40.3484 54.173 40.1723 54.0976 39.9656 53.623C39.7589 53.1409 39.5139 52.1691 39.4909 51.7095C39.468 51.363 39.4756 51.3404 39.6977 51.2952C39.8278 51.2651 40.3331 51.2425 40.8308 51.2349L41.7266 51.2274V51.9581ZM44.835 51.363C45.1259 51.5212 43.7402 54.1654 43.365 54.1654C43.1813 54.1654 43.0511 53.7436 42.9209 52.7341C42.852 52.2143 42.7755 51.6568 42.7525 51.4986L42.7066 51.2048L43.7248 51.2575C44.2838 51.2877 44.7814 51.3329 44.835 51.363ZM49.5666 52.817C49.5895 53.0731 49.6125 53.397 49.6125 53.5326V53.7737L48.9847 53.8264C48.6325 53.849 47.6372 53.8641 46.7644 53.849L45.1872 53.8264L45.5011 53.0882L45.815 52.3574H47.6678H49.513L49.5666 52.817ZM53.2109 52.5081C53.8234 52.5458 54.7958 52.5834 55.3777 52.5834H56.4266V53.1032V53.623L55.1097 53.6682C54.3823 53.6908 53.1191 53.721 52.3152 53.736L50.8375 53.7662V53.0505V52.3423L51.473 52.3875C51.8175 52.4177 52.5984 52.4704 53.2109 52.5081ZM62.7277 52.6889C62.7966 52.719 62.8578 52.832 62.8578 52.9375C62.8578 53.0731 62.7889 53.1484 62.5822 53.2313C61.9697 53.4799 58.0573 53.5778 57.7817 53.3443C57.6975 53.2765 57.6516 53.1258 57.6516 52.9074V52.5759L60.1245 52.5985C61.4797 52.6136 62.6511 52.6512 62.7277 52.6889ZM68.1406 52.8772C68.5388 52.9827 68.1023 53.058 66.5481 53.1334C64.2206 53.2539 64.0522 53.2464 64.0216 53.0882C64.0063 53.0053 64.0598 52.93 64.1747 52.8923C64.3738 52.8094 67.8497 52.7944 68.1406 52.8772ZM15.2436 54.7078C15.4273 54.8359 15.8025 55.1373 16.0781 55.3708C17.3108 56.4255 19.4775 57.9246 20.5341 58.4595C20.825 58.6026 21.0547 58.7382 21.0547 58.7608C21.0547 58.806 20.7638 58.9718 19.7838 59.4841C18.8497 59.9737 18.2602 60.0792 16.9203 60.0039C15.3738 59.9135 12.8395 59.5217 12.227 59.2806L12.0203 59.1902L12.6252 58.0527C13.72 55.9885 14.6464 54.4668 14.8072 54.4668C14.8608 54.4668 15.0598 54.5722 15.2436 54.7078Z" fill="#F48C06"/>
</svg>
