<svg width="250" height="30" viewBox="0 0 250 30" fill="none" xmlns="http://www.w3.org/2000/svg">
<path d="M54.7887 8.072V10.712H53.4207C52.8767 10.984 52.3487 11.32 51.8367 11.72C51.3407 12.104 50.8927 12.552 50.4927 13.064C50.1087 13.56 49.7967 14.112 49.5567 14.72C49.3327 15.328 49.2207 15.984 49.2207 16.688C49.2207 17.648 49.3647 18.4 49.6527 18.944C49.9407 19.488 50.3007 19.872 50.7327 20.096C51.1647 20.304 51.5967 20.408 52.0287 20.408C52.3167 20.408 52.5967 20.384 52.8687 20.336C53.1407 20.272 53.4527 20.152 53.8047 19.976L55.0047 22.352C54.4767 22.656 53.9567 22.864 53.4447 22.976C52.9327 23.072 52.3967 23.12 51.8367 23.12C50.6527 23.12 49.6207 22.88 48.7407 22.4C47.8607 21.904 47.1807 21.184 46.7007 20.24C46.2367 19.28 46.0047 18.12 46.0047 16.76C46.0047 15.784 46.1567 14.856 46.4607 13.976C46.7647 13.08 47.1807 12.256 47.7087 11.504C48.2527 10.752 48.8847 10.088 49.6047 9.512C50.3247 8.92 51.1007 8.44 51.9327 8.072H54.7887ZM75.3666 8.072V10.712H67.5426V12.152L67.5906 13.136V23H64.4226C63.8306 22.136 63.1106 21.376 62.2626 20.72C61.4306 20.064 60.5026 19.52 59.4786 19.088C58.4546 18.64 57.3426 18.32 56.1426 18.128L54.9426 15.296C56.4146 14.48 58.0226 13.696 59.7666 12.944C61.5266 12.176 63.2546 11.568 64.9506 11.12L64.4946 11.816V10.712H54.3186V8.072H75.3666ZM64.4226 13.424L64.9266 13.952C64.2226 14.16 63.5426 14.384 62.8866 14.624C62.2466 14.864 61.6066 15.128 60.9666 15.416C60.3266 15.688 59.6626 15.992 58.9746 16.328C59.6306 16.456 60.3106 16.68 61.0146 17C61.7346 17.304 62.4306 17.704 63.1026 18.2C63.7906 18.696 64.4066 19.272 64.9506 19.928L64.5186 20.192C64.5026 19.904 64.4786 19.584 64.4466 19.232C64.4306 18.88 64.4226 18.504 64.4226 18.104V13.424ZM74.3586 16.808C74.3586 17.336 74.2466 17.84 74.0226 18.32C73.8146 18.8 73.4466 19.192 72.9186 19.496C72.3906 19.8 71.6546 19.952 70.7106 19.952C70.3746 19.952 70.0626 19.944 69.7746 19.928C69.5026 19.896 69.2466 19.856 69.0066 19.808L69.1026 17.168C69.1826 17.184 69.2786 17.2 69.3906 17.216C69.5186 17.216 69.6786 17.216 69.8706 17.216C70.4466 17.216 70.8226 17.12 70.9986 16.928C71.1746 16.72 71.2626 16.472 71.2626 16.184C71.2626 15.64 70.9186 15.16 70.2306 14.744C69.5426 14.328 68.5346 14.008 67.2066 13.784V11.168C68.5186 11.344 69.7106 11.68 70.7826 12.176C71.8706 12.656 72.7346 13.288 73.3746 14.072C74.0306 14.84 74.3586 15.752 74.3586 16.808ZM82.6727 8.072V10.712H80.3687V23H77.2007V12.344C77.0087 11.848 76.7367 11.456 76.3847 11.168C76.0327 10.864 75.5767 10.712 75.0167 10.712H74.8967V8.072H75.3767C75.7447 8.072 76.0887 8.168 76.4087 8.36C76.7287 8.552 77.0247 8.96 77.2967 9.584C77.2807 9.504 77.2567 9.32 77.2247 9.032C77.2087 8.744 77.2007 8.496 77.2007 8.288V6.488H79.7927L80.3447 8.072H82.6727ZM92.2418 8.072V10.712H90.8738C90.3298 10.984 89.8018 11.32 89.2898 11.72C88.7938 12.104 88.3458 12.552 87.9458 13.064C87.5618 13.56 87.2498 14.112 87.0098 14.72C86.7858 15.328 86.6738 15.984 86.6738 16.688C86.6738 17.648 86.8178 18.4 87.1058 18.944C87.3938 19.488 87.7538 19.872 88.1858 20.096C88.6178 20.304 89.0498 20.408 89.4818 20.408C89.7698 20.408 90.0498 20.384 90.3218 20.336C90.5938 20.272 90.9058 20.152 91.2578 19.976L92.4578 22.352C91.9298 22.656 91.4098 22.864 90.8978 22.976C90.3858 23.072 89.8498 23.12 89.2898 23.12C88.1058 23.12 87.0738 22.88 86.1938 22.4C85.3138 21.904 84.6338 21.184 84.1538 20.24C83.6898 19.28 83.4578 18.12 83.4578 16.76C83.4578 15.656 83.6578 14.632 84.0578 13.688C84.4578 12.744 85.0178 11.92 85.7378 11.216C86.4738 10.496 87.3378 9.952 88.3298 9.584L86.7938 10.616C86.5378 10.648 86.2418 10.672 85.9058 10.688C85.5858 10.704 85.1698 10.712 84.6578 10.712H82.1858V8.072H92.2418ZM98.3237 11.36C99.7957 11.36 100.964 11.584 101.828 12.032C102.708 12.464 103.34 13.016 103.724 13.688C104.108 14.36 104.3 15.048 104.3 15.752C104.3 17.064 103.884 18.072 103.052 18.776C102.236 19.464 101.076 19.928 99.5717 20.168L99.0197 19.184C99.8197 19.392 100.612 19.648 101.396 19.952C102.18 20.256 102.956 20.616 103.724 21.032C104.508 21.448 105.276 21.92 106.028 22.448L104.348 24.68C103.596 24.136 102.796 23.632 101.948 23.168C101.116 22.704 100.228 22.288 99.2837 21.92C98.3557 21.536 97.3797 21.2 96.3557 20.912C95.3317 20.624 94.2517 20.392 93.1157 20.216L93.6437 17.696C94.2037 17.84 94.7477 17.952 95.2757 18.032C95.8197 18.112 96.3637 18.152 96.9077 18.152C97.9317 18.152 98.7477 18.056 99.3557 17.864C99.9637 17.656 100.404 17.376 100.676 17.024C100.964 16.672 101.108 16.256 101.108 15.776C101.108 15.2 100.884 14.736 100.436 14.384C100.004 14.032 99.3877 13.856 98.5877 13.856C98.1237 13.856 97.7477 13.896 97.4597 13.976C97.1877 14.056 96.9877 14.184 96.8597 14.36C96.7477 14.52 96.6917 14.72 96.6917 14.96C96.6917 15.04 96.7077 15.136 96.7397 15.248C96.7717 15.36 96.8037 15.456 96.8357 15.536L93.8597 15.968C93.7637 15.728 93.6837 15.456 93.6197 15.152C93.5557 14.832 93.5237 14.536 93.5237 14.264C93.5237 13.688 93.7157 13.184 94.0997 12.752C94.4837 12.304 95.0357 11.96 95.7557 11.72C96.4757 11.48 97.3317 11.36 98.3237 11.36ZM95.4917 12.728C95.4117 12.2 95.1717 11.744 94.7717 11.36C94.3717 10.976 93.7957 10.696 93.0437 10.52L94.8677 9.464L95.9717 9.728C96.8677 10.096 97.5157 10.504 97.9157 10.952C98.3157 11.4 98.5477 11.968 98.6117 12.656L95.4917 12.728ZM106.004 8.072V10.712H91.7717V8.072H106.004ZM124.634 8.072V10.712H122.33V23H119.162V15.44L119.81 16.808C119.554 16.344 119.25 15.944 118.898 15.608C118.546 15.272 118.146 15.104 117.698 15.104C117.538 15.104 117.354 15.144 117.146 15.224C116.954 15.304 116.786 15.456 116.642 15.68C116.514 15.904 116.45 16.232 116.45 16.664C116.45 16.808 116.458 16.944 116.474 17.072C116.49 17.184 116.506 17.304 116.522 17.432L113.81 17.6C113.73 17.072 113.57 16.616 113.33 16.232C113.106 15.832 112.818 15.528 112.466 15.32C112.114 15.112 111.69 15.008 111.194 15.008C110.906 15.008 110.65 15.064 110.426 15.176C110.202 15.272 110.026 15.416 109.898 15.608C109.786 15.8 109.73 16.024 109.73 16.28C109.73 16.856 109.954 17.304 110.402 17.624C110.866 17.944 111.426 18.208 112.082 18.416L111.17 21.104C110.21 20.832 109.378 20.472 108.674 20.024C107.97 19.56 107.426 19.008 107.042 18.368C106.658 17.728 106.466 16.992 106.466 16.16C106.466 15.36 106.658 14.672 107.042 14.096C107.442 13.52 107.97 13.08 108.626 12.776C109.282 12.456 110.002 12.296 110.786 12.296C111.73 12.296 112.522 12.456 113.162 12.776C113.802 13.08 114.466 13.584 115.154 14.288L114.722 14.12C114.898 13.56 115.21 13.136 115.658 12.848C116.106 12.56 116.578 12.416 117.074 12.416C117.634 12.416 118.13 12.528 118.562 12.752C119.01 12.976 119.426 13.28 119.81 13.664L119.282 14.048C119.25 13.696 119.218 13.344 119.186 12.992C119.17 12.64 119.162 12.288 119.162 11.936V10.712H105.53V8.072H124.634ZM131.938 10.712H129.634V23H126.466V10.712H124.162V8.072H126.466C126.306 7.24 126.002 6.528 125.554 5.936C125.106 5.344 124.514 4.864 123.778 4.496C123.042 4.112 122.17 3.832 121.162 3.656C120.138 3.48 118.978 3.392 117.682 3.392C116.898 3.392 116.242 3.432 115.714 3.512C115.186 3.576 114.794 3.68 114.538 3.824C114.282 3.952 114.154 4.104 114.154 4.28C114.154 4.44 114.242 4.552 114.418 4.616C114.578 4.664 114.898 4.688 115.378 4.688H117.802C118.73 4.688 119.474 4.76 120.034 4.904C120.578 5.048 121.026 5.28 121.378 5.6C121.698 5.888 121.93 6.24 122.074 6.656C122.218 7.072 122.29 7.6 122.29 8.24H119.266C119.266 7.968 119.226 7.736 119.146 7.544C119.066 7.352 118.946 7.208 118.786 7.112C118.642 7.032 118.482 6.976 118.306 6.944C118.13 6.896 117.898 6.872 117.61 6.872H115.858C114.898 6.872 114.146 6.824 113.602 6.728C113.058 6.616 112.618 6.464 112.282 6.272C111.882 6.048 111.602 5.768 111.442 5.432C111.282 5.08 111.202 4.712 111.202 4.328C111.202 3.336 111.778 2.536 112.93 1.928C114.066 1.304 115.81 0.991999 118.162 0.991999C121.65 0.991999 124.378 1.568 126.346 2.72C128.314 3.856 129.426 5.64 129.682 8.072H131.938V10.712ZM158.476 8.072V10.712H150.652V12.152L150.7 13.136V23H147.532C146.94 22.136 146.22 21.376 145.372 20.72C144.54 20.064 143.612 19.52 142.588 19.088C141.564 18.64 140.452 18.32 139.252 18.128L138.052 15.296C139.524 14.48 141.132 13.696 142.876 12.944C144.636 12.176 146.364 11.568 148.06 11.12L147.604 11.816V10.712H137.428V8.072H158.476ZM147.532 13.424L148.036 13.952C147.332 14.16 146.652 14.384 145.996 14.624C145.356 14.864 144.716 15.128 144.076 15.416C143.436 15.688 142.772 15.992 142.084 16.328C142.74 16.456 143.42 16.68 144.124 17C144.844 17.304 145.54 17.704 146.212 18.2C146.9 18.696 147.516 19.272 148.06 19.928L147.628 20.192C147.612 19.904 147.588 19.584 147.556 19.232C147.54 18.88 147.532 18.504 147.532 18.104V13.424ZM157.468 16.808C157.468 17.336 157.356 17.84 157.132 18.32C156.924 18.8 156.556 19.192 156.028 19.496C155.5 19.8 154.764 19.952 153.82 19.952C153.484 19.952 153.172 19.944 152.884 19.928C152.612 19.896 152.356 19.856 152.116 19.808L152.212 17.168C152.292 17.184 152.388 17.2 152.5 17.216C152.628 17.216 152.788 17.216 152.98 17.216C153.556 17.216 153.932 17.12 154.108 16.928C154.284 16.72 154.372 16.472 154.372 16.184C154.372 15.64 154.028 15.16 153.34 14.744C152.652 14.328 151.644 14.008 150.316 13.784V11.168C151.628 11.344 152.82 11.68 153.892 12.176C154.98 12.656 155.844 13.288 156.484 14.072C157.14 14.84 157.468 15.752 157.468 16.808ZM145.418 29.384C144.874 29.384 144.314 29.28 143.738 29.072C143.146 28.88 142.65 28.568 142.25 28.136C141.85 27.704 141.65 27.128 141.65 26.408C141.65 25.528 141.986 24.824 142.658 24.296C143.314 23.768 144.274 23.504 145.538 23.504C146.69 23.504 147.762 23.648 148.754 23.936C149.746 24.24 150.738 24.688 151.73 25.28C152.722 25.872 153.794 26.616 154.946 27.512L153.242 29.504C152.314 28.656 151.426 27.944 150.578 27.368C149.73 26.792 148.922 26.36 148.154 26.072C147.386 25.784 146.658 25.64 145.97 25.64C145.474 25.64 145.122 25.72 144.914 25.88C144.69 26.04 144.578 26.248 144.578 26.504C144.578 26.792 144.674 27 144.866 27.128C145.058 27.256 145.322 27.32 145.658 27.32C146.058 27.32 146.386 27.224 146.642 27.032C146.882 26.84 147.066 26.592 147.194 26.288C147.322 26 147.41 25.688 147.458 25.352C147.506 25.032 147.53 24.728 147.53 24.44V22.616H150.698V23.792C150.698 24.304 150.642 24.88 150.53 25.52C150.402 26.16 150.162 26.768 149.81 27.344C149.442 27.936 148.906 28.424 148.202 28.808C147.498 29.192 146.57 29.384 145.418 29.384ZM179.246 8.072V10.712H163.094V15.704L162.134 15.056C162.566 14.672 163.118 14.264 163.79 13.832C164.478 13.384 165.238 12.96 166.07 12.56C166.902 12.144 167.758 11.8 168.638 11.528L170.75 13.232C170.51 13.728 170.326 14.208 170.198 14.672C170.086 15.136 170.03 15.608 170.03 16.088C170.03 16.424 170.046 16.736 170.078 17.024C170.11 17.312 170.158 17.608 170.222 17.912L169.214 17.504C169.646 17.12 170.198 16.712 170.87 16.28C171.558 15.832 172.318 15.408 173.15 15.008C173.982 14.608 174.838 14.264 175.718 13.976L177.83 15.68C177.574 16.192 177.39 16.744 177.278 17.336C177.166 17.912 177.11 18.504 177.11 19.112C177.11 19.736 177.158 20.312 177.254 20.84C177.366 21.368 177.51 21.96 177.686 22.616L174.59 23.264C174.382 22.56 174.214 21.904 174.086 21.296C173.974 20.688 173.918 20.04 173.918 19.352C173.918 18.52 174.014 17.792 174.206 17.168C174.398 16.544 174.63 15.984 174.902 15.488L176.222 16.616C175.454 16.856 174.67 17.192 173.87 17.624C173.086 18.056 172.326 18.528 171.59 19.04C170.87 19.536 170.214 20.024 169.622 20.504L167.006 18.776C166.942 18.504 166.894 18.168 166.862 17.768C166.846 17.368 166.838 17.008 166.838 16.688C166.838 16.032 166.926 15.4 167.102 14.792C167.294 14.168 167.534 13.592 167.822 13.064L169.142 14.168C168.39 14.424 167.614 14.768 166.814 15.2C166.03 15.616 165.27 16.08 164.534 16.592C163.798 17.088 163.134 17.576 162.542 18.056L159.926 16.328V10.712H158.006V8.072H179.246ZM172.254 29.384C171.71 29.384 171.15 29.28 170.574 29.072C169.982 28.88 169.486 28.568 169.086 28.136C168.686 27.704 168.486 27.128 168.486 26.408C168.486 25.528 168.822 24.824 169.494 24.296C170.15 23.768 171.11 23.504 172.374 23.504C173.526 23.504 174.598 23.648 175.59 23.936C176.582 24.24 177.574 24.688 178.566 25.28C179.558 25.872 180.63 26.616 181.782 27.512L180.078 29.504C179.15 28.656 178.262 27.944 177.414 27.368C176.566 26.792 175.758 26.36 174.99 26.072C174.222 25.784 173.494 25.64 172.806 25.64C172.31 25.64 171.958 25.72 171.75 25.88C171.526 26.04 171.414 26.248 171.414 26.504C171.414 26.792 171.51 27 171.702 27.128C171.894 27.256 172.158 27.32 172.494 27.32C172.894 27.32 173.222 27.224 173.478 27.032C173.718 26.84 173.902 26.592 174.03 26.288C174.158 26 174.246 25.688 174.294 25.352C174.342 25.032 174.366 24.728 174.366 24.44V22.616H177.534V23.792C177.534 24.304 177.478 24.88 177.366 25.52C177.238 26.16 176.998 26.768 176.646 27.344C176.278 27.936 175.742 28.424 175.038 28.808C174.334 29.192 173.406 29.384 172.254 29.384ZM196.244 8.072V10.712H193.94V23H190.772V15.416L191.372 16.448C191.052 16.048 190.756 15.744 190.484 15.536C190.228 15.312 189.98 15.2 189.74 15.2C189.548 15.2 189.372 15.256 189.212 15.368C189.052 15.48 188.86 15.704 188.636 16.04C188.412 16.376 188.084 16.888 187.652 17.576C187.204 18.28 186.78 18.856 186.38 19.304C185.98 19.736 185.564 20.048 185.132 20.24C184.716 20.432 184.228 20.528 183.668 20.528C183.188 20.528 182.724 20.448 182.276 20.288C181.828 20.128 181.388 19.848 180.956 19.448C180.54 19.032 180.116 18.448 179.684 17.696L181.892 16.328C182.212 16.84 182.484 17.208 182.708 17.432C182.932 17.64 183.196 17.744 183.5 17.744C183.708 17.744 183.9 17.696 184.076 17.6C184.268 17.504 184.484 17.288 184.724 16.952C184.98 16.6 185.3 16.056 185.684 15.32L186.284 14.696C186.716 13.896 187.124 13.336 187.508 13.016C187.892 12.696 188.364 12.536 188.924 12.536C189.356 12.536 189.74 12.64 190.076 12.848C190.428 13.04 190.82 13.344 191.252 13.76L190.868 13.856C190.852 13.552 190.828 13.24 190.796 12.92C190.78 12.584 190.772 12.256 190.772 11.936V10.712H178.772V8.072H196.244ZM184.82 17.096C184.676 16.104 184.524 15.32 184.364 14.744C184.204 14.152 183.94 13.696 183.572 13.376C183.188 13.04 182.676 12.792 182.036 12.632C181.396 12.456 180.588 12.312 179.612 12.2L180.5 9.44L182.204 10.304C183.116 10.464 183.852 10.656 184.412 10.88C184.972 11.104 185.412 11.392 185.732 11.744C186.052 12.08 186.284 12.512 186.428 13.04C186.572 13.552 186.676 14.184 186.74 14.936L184.82 17.096ZM217.7 8.072V10.712H215.396V23H212.228V19.88L212.636 21.152C212.044 20.336 211.476 19.64 210.932 19.064C210.388 18.472 209.844 18.024 209.3 17.72C208.756 17.4 208.18 17.24 207.572 17.24C207.204 17.24 206.884 17.336 206.612 17.528C206.34 17.72 206.204 18.008 206.204 18.392C206.204 18.808 206.356 19.136 206.66 19.376C206.98 19.6 207.412 19.808 207.956 20L207.044 22.76C206.084 22.488 205.3 22.12 204.692 21.656C204.1 21.176 203.66 20.648 203.372 20.072C203.084 19.496 202.94 18.904 202.94 18.296C202.94 17.448 203.14 16.752 203.54 16.208C203.94 15.664 204.452 15.264 205.076 15.008C205.716 14.752 206.372 14.624 207.044 14.624C207.828 14.624 208.548 14.728 209.204 14.936C209.876 15.144 210.5 15.472 211.076 15.92C211.652 16.352 212.212 16.92 212.756 17.624L212.276 17.984C212.26 17.6 212.244 17.216 212.228 16.832C212.228 16.432 212.228 16.04 212.228 15.656V10.712H201.74V8.072H217.7ZM209.684 15.296C209.684 15.376 209.676 15.496 209.66 15.656C209.66 15.8 209.644 15.944 209.612 16.088L206.516 15.296C206.484 14.544 206.348 13.952 206.108 13.52C205.868 13.088 205.468 12.76 204.908 12.536C204.348 12.312 203.548 12.152 202.508 12.056L203.132 9.632L204.476 10.016C205.436 10.128 206.244 10.32 206.9 10.592C207.572 10.864 208.108 11.216 208.508 11.648C208.924 12.064 209.22 12.576 209.396 13.184C209.588 13.792 209.684 14.496 209.684 15.296ZM210.105 29.384C209.561 29.384 209.001 29.28 208.425 29.072C207.833 28.88 207.337 28.568 206.937 28.136C206.537 27.704 206.337 27.128 206.337 26.408C206.337 25.528 206.673 24.824 207.345 24.296C208.001 23.768 208.961 23.504 210.225 23.504C211.377 23.504 212.449 23.648 213.441 23.936C214.433 24.24 215.425 24.688 216.417 25.28C217.409 25.872 218.481 26.616 219.633 27.512L217.929 29.504C217.001 28.656 216.113 27.944 215.265 27.368C214.417 26.792 213.609 26.36 212.841 26.072C212.073 25.784 211.345 25.64 210.657 25.64C210.161 25.64 209.809 25.72 209.601 25.88C209.377 26.04 209.265 26.248 209.265 26.504C209.265 26.792 209.361 27 209.553 27.128C209.745 27.256 210.009 27.32 210.345 27.32C210.745 27.32 211.073 27.224 211.329 27.032C211.569 26.84 211.753 26.592 211.881 26.288C212.009 26 212.097 25.688 212.145 25.352C212.193 25.032 212.217 24.728 212.217 24.44V22.616H215.385V23.792C215.385 24.304 215.329 24.88 215.217 25.52C215.089 26.16 214.849 26.768 214.497 27.344C214.129 27.936 213.593 28.424 212.889 28.808C212.185 29.192 211.257 29.384 210.105 29.384ZM224.985 8.072V10.712H222.681V23H219.513V10.712H217.209V8.072H219.537C219.281 7.768 219.001 7.424 218.697 7.04C218.409 6.64 218.153 6.288 217.929 5.984C218.841 4.736 219.737 3.752 220.617 3.032C221.513 2.296 222.449 1.776 223.425 1.472C224.417 1.152 225.505 0.991999 226.689 0.991999C227.601 0.991999 228.481 1.064 229.329 1.208C230.177 1.336 231.057 1.552 231.969 1.856C232.881 2.16 233.873 2.568 234.945 3.08C236.017 3.576 237.225 4.192 238.569 4.928L237.081 7.136C235.881 6.512 234.825 5.976 233.913 5.528C233.001 5.08 232.161 4.72 231.393 4.448C230.641 4.16 229.913 3.952 229.209 3.824C228.521 3.696 227.793 3.632 227.025 3.632C226.145 3.632 225.353 3.776 224.649 4.064C223.961 4.352 223.353 4.72 222.825 5.168C222.313 5.6 221.865 6.048 221.481 6.512C221.625 6.768 221.785 7.04 221.961 7.328C222.153 7.6 222.353 7.848 222.561 8.072H224.985ZM237.938 11C239.266 11 240.266 11.272 240.938 11.816C241.626 12.36 241.97 13.104 241.97 14.048C241.97 14.72 241.77 15.336 241.37 15.896C240.986 16.44 240.45 16.92 239.762 17.336C239.09 17.752 238.306 18.112 237.41 18.416L236.33 15.992C237.226 15.72 237.874 15.456 238.274 15.2C238.69 14.928 238.898 14.592 238.898 14.192C238.898 13.968 238.81 13.792 238.634 13.664C238.458 13.536 238.17 13.472 237.77 13.472C237.338 13.472 236.922 13.528 236.522 13.64C236.122 13.752 235.762 13.896 235.442 14.072C235.138 14.232 234.898 14.4 234.722 14.576C234.546 14.752 234.458 14.912 234.458 15.056C234.458 15.2 234.514 15.328 234.626 15.44C234.738 15.536 235.002 15.6 235.418 15.632L234.746 18.32C233.578 18.192 232.714 17.856 232.154 17.312C231.594 16.768 231.314 16.128 231.314 15.392C231.314 14.736 231.506 14.136 231.89 13.592C232.29 13.048 232.81 12.584 233.45 12.2C234.106 11.816 234.826 11.52 235.61 11.312C236.394 11.104 237.17 11 237.938 11ZM242.21 18.992C242.21 20.208 241.666 21.184 240.578 21.92C239.49 22.64 237.986 23 236.066 23C234.85 23 233.698 22.856 232.61 22.568C231.522 22.264 230.514 21.76 229.586 21.056C228.658 20.352 227.818 19.392 227.066 18.176C226.33 16.96 225.682 15.44 225.122 13.616L228.098 12.8C228.642 14.64 229.282 16.112 230.018 17.216C230.77 18.304 231.626 19.088 232.586 19.568C233.562 20.048 234.666 20.288 235.898 20.288C236.794 20.288 237.546 20.152 238.154 19.88C238.762 19.608 239.066 19.2 239.066 18.656C239.066 18.24 238.874 17.896 238.49 17.624C238.106 17.352 237.642 17.144 237.098 17L239.858 15.752C240.546 16.12 241.106 16.576 241.538 17.12C241.986 17.664 242.21 18.288 242.21 18.992ZM244.298 12.056C245.53 12.056 246.45 12.376 247.058 13.016C247.666 13.64 247.97 14.448 247.97 15.44C247.97 16.048 247.826 16.632 247.538 17.192C247.25 17.752 246.802 18.256 246.194 18.704C245.586 19.152 244.802 19.504 243.842 19.76L243.05 17.24C243.738 17.08 244.226 16.856 244.514 16.568C244.802 16.264 244.946 15.952 244.946 15.632C244.946 15.264 244.834 15 244.61 14.84C244.402 14.68 244.114 14.6 243.746 14.6C243.394 14.6 242.954 14.744 242.426 15.032C241.914 15.304 241.418 15.76 240.938 16.4L239.498 15.8C240.01 14.856 240.522 14.112 241.034 13.568C241.562 13.024 242.09 12.64 242.618 12.416C243.162 12.176 243.722 12.056 244.298 12.056ZM249.002 8.072V10.712H224.498V8.072H249.002Z" fill="#F48C06"/>
<rect width="34.5946" height="30" rx="6" fill="#F48C06"/>
<path d="M11.043 21.6781C10.4907 21.6781 10.043 21.2304 10.043 20.6781V9.22581C10.043 8.67352 10.4907 8.22581 11.043 8.22581H12.562C13.1143 8.22581 13.562 8.67352 13.562 9.22581V20.6781C13.562 21.2304 13.1143 21.6781 12.562 21.6781H11.043ZM14.7198 15.499C14.6175 15.2591 14.6129 14.9888 14.7071 14.7457L16.9834 8.86483C17.1324 8.47969 17.503 8.22581 17.9159 8.22581H19.2453C19.9467 8.22581 20.4302 8.92899 20.1791 9.58384L18.1979 14.7504C18.1057 14.9908 18.1098 15.2574 18.2093 15.4948L20.2188 20.2917C20.4949 20.9506 20.0109 21.6781 19.2965 21.6781H18.0161C17.6155 21.6781 17.2535 21.439 17.0963 21.0705L14.7198 15.499Z" fill="white"/>
<path d="M21.9227 20.3329C21.9227 19.7564 22.2472 19.3272 22.8961 19.0453C23.1789 18.93 23.4784 18.8723 23.7945 18.8723C24.5432 18.8723 25.0923 19.1222 25.4417 19.6218C25.5915 19.8396 25.6663 20.0766 25.6663 20.3329C25.6663 20.9222 25.3336 21.345 24.668 21.6012C24.3852 21.7165 24.094 21.7742 23.7945 21.7742C23.0292 21.7742 22.4801 21.518 22.1473 21.0055C21.9976 20.7877 21.9227 20.5635 21.9227 20.3329Z" fill="white"/>
</svg>
