<svg width="60" height="60" viewBox="0 0 60 60" fill="none" xmlns="http://www.w3.org/2000/svg">
<rect width="60" height="60" rx="8" fill="#F48C06"/>
<g clip-path="url(#clip0_1506_23021)">
<path d="M26.4408 12.661C26.0822 12.8157 25.7376 13.1743 25.5759 13.5469C25.4353 13.8774 25.4001 14.3977 24.9712 22.4133C24.7251 27.0961 24.5142 30.9352 24.5001 30.9493C24.4861 30.9633 24.3033 30.893 24.0923 30.7876C23.7478 30.6188 23.6283 30.5977 22.9673 30.5977C21.8001 30.5977 21.758 30.6258 19.5572 32.8055C18.2072 34.1485 13.8548 38.1774 12.1814 39.6399C12.1041 39.7032 12.8494 40.561 12.9619 40.5329C13.1306 40.4907 18.9033 35.1961 20.5064 33.6071C22.222 31.9126 22.4259 31.7579 22.9673 31.7579C23.3962 31.7579 23.7337 31.9336 24.2189 32.4118C25.0837 33.2555 25.0837 33.4172 24.2611 35.0766L23.6494 36.293L23.4806 35.9415C23.2345 35.4282 23.2697 34.711 23.572 34.0711L23.79 33.6071L23.2767 33.354C22.9884 33.2063 22.7423 33.0938 22.7283 33.0938C22.7212 33.0938 22.5876 33.354 22.433 33.6704C22.1939 34.1907 22.1587 34.3243 22.1376 34.9079C22.0955 35.7586 22.2431 36.3282 22.658 36.9329L22.9603 37.3758L22.8267 37.6782C22.6228 38.1211 22.6369 38.8102 22.8548 39.2321L23.0166 39.5626L22.8548 39.893C22.6439 40.3079 22.6228 41.011 22.8197 41.4258C22.9814 41.7704 23.34 42.1219 23.6775 42.2626C23.9025 42.354 23.9236 42.3891 23.8955 42.6141C23.8744 42.811 23.8322 42.8672 23.6775 42.9024C23.2978 42.9868 21.6806 42.804 20.8369 42.586C19.4587 42.2344 18.7275 42.3329 18.1087 42.9516C17.8837 43.1766 15.4439 47.0016 15.4439 47.1282C15.4439 47.1633 15.6619 47.3251 15.922 47.4868C16.2806 47.7118 16.4142 47.761 16.4705 47.6977C16.5197 47.6485 17.0822 46.7626 17.7291 45.729C18.9736 43.7321 19.1142 43.5704 19.5923 43.5704C19.7259 43.5704 20.0634 43.6336 20.3306 43.711C21.1251 43.943 22.0251 44.0626 22.9533 44.0626H23.8111V45.1172C23.8111 46.1086 23.8251 46.2001 23.9869 46.5235C24.2822 47.1071 24.8517 47.4376 25.5548 47.4376C26.047 47.4376 26.6095 47.1844 26.8697 46.8469C27.2142 46.3969 27.2564 46.1719 27.3408 44.4985L27.4181 42.9024L27.7064 42.6563C27.8611 42.5227 28.1142 42.3751 28.2759 42.3258C28.6486 42.2133 29.1408 41.7844 29.3025 41.4329C29.4994 41.004 29.4783 40.3079 29.2673 39.893L29.1056 39.5626L29.2673 39.2321C29.4994 38.7751 29.4994 38.1001 29.2673 37.643L29.1056 37.3126L29.2673 36.9821C29.3939 36.736 29.4361 36.5391 29.4361 36.1876C29.4361 35.836 29.3939 35.6391 29.2673 35.393L29.1056 35.0626L29.2673 34.7321C29.4783 34.3172 29.4994 33.6211 29.3025 33.1922C29.1408 32.8336 28.6416 32.4047 28.2759 32.3063L27.9947 32.229L28.058 30.9071C28.1212 29.6063 28.1212 29.5782 28.2689 29.6133C28.3533 29.6274 28.7189 29.6766 29.0845 29.7188C30.5119 29.8876 31.1587 30.4641 31.433 31.8001C31.4892 32.0743 31.6228 32.4751 31.7212 32.679C31.9673 33.1571 32.6705 33.8672 33.1486 34.1063C33.4087 34.2399 35.0681 34.6618 38.6751 35.5196C41.5087 36.1946 43.9275 36.7501 44.0541 36.7501C44.3845 36.7501 44.5392 36.6376 44.6236 36.3422C44.7572 35.8711 47.4361 20.7188 47.4361 20.4305C47.4361 20.2477 47.3869 20.1071 47.2955 20.0157C47.1548 19.8751 47.0634 19.8751 41.6212 19.8751C38.4923 19.8751 35.9611 19.8469 35.7994 19.8047C35.4197 19.7204 35.1314 19.3969 35.1314 19.0524C35.1314 18.9118 35.2439 18.4477 35.3845 18.0188C35.6166 17.2946 35.6376 17.1891 35.6095 16.5282C35.5884 15.9024 35.5603 15.7758 35.3564 15.354C35.0611 14.7563 34.5478 14.2501 33.9431 13.9477L33.4791 13.7227L32.0025 13.7297C30.9126 13.7368 30.315 13.7719 29.7033 13.8774L28.8806 14.011L28.8033 13.7086C28.6908 13.329 28.3181 12.893 27.9384 12.7102C27.5798 12.5344 26.7853 12.5133 26.4408 12.661ZM27.4955 13.9055C27.6642 14.0391 27.6783 14.0883 27.6783 14.6579C27.6853 15.3329 26.8416 31.8352 26.7923 32.0883C26.7642 32.236 26.722 32.2501 26.2369 32.2501C25.9556 32.2501 25.7025 32.229 25.6884 32.1938C25.6181 32.0883 26.6095 14.2008 26.6869 14.0532C26.8556 13.7368 27.2001 13.6735 27.4955 13.9055ZM33.3736 15.0376C33.7955 15.2133 34.0556 15.4735 34.2595 15.9024C34.4986 16.4086 34.4775 16.8516 34.1822 17.7727C33.683 19.3126 33.9853 20.318 35.0962 20.8313L35.4478 21.0001H40.8126C45.8892 21.0001 46.1775 21.0071 46.1423 21.1196C46.1283 21.1899 45.7697 23.1586 45.3548 25.5001C44.947 27.8415 44.5814 29.7821 44.5533 29.8102C44.5041 29.8665 42.4369 29.7118 41.4595 29.5711C40.0181 29.3672 38.422 28.9102 37.0298 28.2985C35.497 27.6235 35.1736 27.2649 34.8291 25.8657C34.7306 25.4719 34.5478 24.9586 34.4283 24.7337C33.9853 23.911 33.0923 23.2008 32.1783 22.9477C31.9673 22.8844 31.0673 22.7227 30.1744 22.5751C29.2884 22.4344 28.5501 22.3079 28.5361 22.3008C28.508 22.2797 28.8806 15.2766 28.9087 15.2485C28.972 15.1782 30.8072 14.9321 31.6158 14.8899C32.7197 14.8336 32.9447 14.8477 33.3736 15.0376ZM30.2587 23.8126C32.0939 24.1219 32.3892 24.2274 32.9166 24.7618C33.3525 25.1907 33.5423 25.5774 33.697 26.3086C33.9431 27.5391 34.6462 28.4672 35.7501 29.0368C37.3533 29.8665 39.4486 30.5133 41.3892 30.7735C41.6775 30.8157 42.4509 30.886 43.0978 30.9422C43.7517 30.9985 44.3002 31.0618 44.3212 31.0829C44.3845 31.1461 43.6111 35.3579 43.5267 35.393C43.4072 35.4352 34.2384 33.2485 33.8728 33.0868C33.1486 32.7704 32.7619 32.2571 32.558 31.343C32.4033 30.6258 32.108 30.0633 31.6298 29.5571C31.0673 28.9735 30.4837 28.7063 29.4361 28.5586C28.0509 28.3688 28.1775 28.418 28.2126 28.1157C28.2267 27.9751 28.2689 27.1594 28.3111 26.3086C28.4166 24.0024 28.4587 23.5313 28.5501 23.5313C28.5923 23.5313 29.3587 23.6579 30.2587 23.8126ZM27.9244 33.4735C28.1845 33.586 28.29 33.811 28.2126 34.1204C28.1353 34.4086 27.8048 34.5001 26.7923 34.5001C25.9767 34.5001 25.9064 34.493 25.9556 34.3735C25.9837 34.3102 26.0189 34.0571 26.04 33.811L26.0822 33.3751H26.8837C27.4181 33.3751 27.7626 33.4102 27.9244 33.4735ZM27.9244 35.7235C28.1845 35.836 28.29 36.061 28.2126 36.3704C28.1283 36.6938 27.84 36.7501 26.2369 36.7501C25.4423 36.7501 24.7955 36.736 24.7955 36.7149C24.7955 36.7008 24.915 36.4477 25.0556 36.1524L25.3158 35.6251H26.5041C27.3689 35.6251 27.7486 35.6532 27.9244 35.7235ZM27.9244 37.9735C28.1845 38.086 28.29 38.311 28.2126 38.6204C28.1283 38.9508 27.8541 39.0001 26.0611 39.0001C24.2681 39.0001 23.9939 38.9508 23.9095 38.6204C23.8392 38.318 23.9376 38.086 24.1837 37.9805C24.5142 37.8329 27.5798 37.8329 27.9244 37.9735ZM27.9244 40.2235C28.1845 40.336 28.29 40.561 28.2126 40.8704C28.1283 41.2008 27.8541 41.2501 26.0611 41.2501C24.2681 41.2501 23.9939 41.2008 23.9095 40.8704C23.8392 40.568 23.9376 40.336 24.1837 40.2305C24.5142 40.0829 27.5798 40.0829 27.9244 40.2235ZM26.2369 42.9165C26.2158 43.2188 26.1666 44.0133 26.1314 44.6883C26.0681 45.8063 26.0541 45.9258 25.9134 46.0805C25.7095 46.2915 25.3439 46.2985 25.133 46.0876C24.9853 45.9399 24.9853 45.9188 25.0345 44.3157C25.0626 43.4227 25.0978 42.6211 25.1189 42.5368C25.1611 42.3821 25.1962 42.3751 25.7166 42.3751H26.272L26.2369 42.9165Z" fill="white"/>
</g>
<defs>
<clipPath id="clip0_1506_23021">
<rect width="36" height="36" fill="white" transform="translate(12 12)"/>
</clipPath>
</defs>
</svg>
