<svg width="60" height="60" viewBox="0 0 60 60" fill="none" xmlns="http://www.w3.org/2000/svg">
<rect width="60" height="60" rx="8" fill="#F48C06"/>
<path d="M25.112 15.0516C23.2206 15.4242 21.8566 16.7391 21.2378 18.7992C21.0761 19.3266 21.048 19.5867 21.0198 20.543C20.9917 21.5063 21.0058 21.7734 21.1394 22.4063C21.8284 25.7672 24.7464 29.0859 28.712 31.0266C29.2183 31.2797 29.7456 31.5047 29.8792 31.5258C30.1886 31.575 31.1308 31.1672 32.3331 30.4641C35.8347 28.418 38.2323 25.4648 38.8581 22.4063C38.9917 21.7734 39.0058 21.5063 38.9777 20.543C38.9495 19.5867 38.9214 19.3266 38.7597 18.7992C38.1831 16.8797 36.9175 15.5648 35.2019 15.1148C34.5972 14.9602 33.43 14.9602 32.7761 15.1219C32.1573 15.2695 31.0113 15.832 30.4558 16.2539C30.2238 16.4297 30.0198 16.5703 29.9988 16.5703C29.9777 16.5703 29.7738 16.4297 29.5417 16.2539C28.9933 15.832 27.8331 15.2695 27.2566 15.1289C26.5886 14.9742 25.6886 14.9391 25.112 15.0516ZM27.0175 16.718C27.7698 16.943 28.7191 17.5336 29.2253 18.082C29.4573 18.3352 29.7316 18.4688 29.9988 18.4688C30.287 18.4688 30.4488 18.3773 30.9198 17.9484C31.4542 17.4492 32.0378 17.0766 32.6636 16.8234C33.1558 16.6266 33.2683 16.6055 34.0136 16.6055C34.8081 16.6055 34.8292 16.6125 35.3566 16.8656C36.2777 17.3227 36.9738 18.2227 37.2761 19.3547C37.4378 19.9453 37.487 21.0984 37.3816 21.7523C37.1073 23.4891 36.2073 25.1133 34.6745 26.6672C33.4652 27.8836 32.2347 28.7836 30.7511 29.5148L29.9917 29.8945L29.1831 29.4867C25.7308 27.7289 23.2628 24.9234 22.6722 22.0617C22.5105 21.2672 22.5245 20.0367 22.7144 19.3547C23.08 18.0469 23.9167 17.0836 25.0417 16.6969C25.5409 16.5211 26.4128 16.5352 27.0175 16.718Z" fill="white"/>
<path d="M16.95 33.0234C16.8656 33.0515 16.732 33.171 16.6477 33.2765C16.5 33.4664 16.5 33.4664 16.5 38.2617C16.5 42.9867 16.5 43.064 16.6406 43.2398C16.725 43.3453 16.9078 43.4578 17.0484 43.5C17.3859 43.5914 20.1141 43.5914 20.4516 43.5C20.8664 43.3804 21 43.1484 21 42.5437V42.0234H21.6469H22.2937L26.0555 43.4367C30.1406 44.9695 30.5414 45.089 31.5258 45.0187C32.7 44.9343 32.9953 44.7867 35.6742 42.9867C36.9961 42.0867 39.1055 40.6664 40.35 39.8296C43.2469 37.882 43.5 37.6148 43.5 36.532C43.5 35.8851 43.3102 35.4351 42.8531 35.0203C42.4031 34.6054 41.9602 34.4718 41.1516 34.514C40.6242 34.5421 40.0898 34.6687 38.1562 35.196C36.0398 35.7796 35.7797 35.864 35.6109 36.0539C35.4562 36.2156 35.4141 36.3281 35.4141 36.5812C35.4141 37.0242 35.6953 37.3125 36.1242 37.3125C36.293 37.3125 37.4742 37.0242 38.7609 36.6796C40.0406 36.3281 41.2008 36.0468 41.3344 36.0468C41.6367 36.0468 41.9531 36.2789 41.9531 36.4968C41.9531 36.7781 41.6859 37.0171 40.3852 37.889C39.682 38.3601 37.6852 39.7101 35.9414 40.8914C34.2047 42.0726 32.5875 43.1132 32.3555 43.2117C32.0391 43.3453 31.7719 43.3945 31.2656 43.4156C30.4781 43.4507 30.9844 43.6125 26.2523 41.8265L22.6805 40.4765H21.8367H21V38.2617V36.0468H24.0094H27.0117L29.6273 36.8132C31.0687 37.2421 32.3062 37.6218 32.3836 37.664C32.5945 37.7765 32.7422 38.0226 32.7422 38.2687C32.7422 38.5429 32.468 38.8945 32.2148 38.9578C32.0883 38.9929 31.3922 38.8101 30.0281 38.4023C28.9242 38.0718 27.9117 37.8046 27.7711 37.8046C27.5812 37.8046 27.4688 37.8609 27.2859 38.0437C26.9695 38.3601 26.9484 38.7539 27.2437 39.0703C27.4125 39.2601 27.6797 39.3585 29.4375 39.8929C31.2586 40.4414 31.4977 40.4976 32.0391 40.5046C32.8125 40.5117 33.2344 40.3289 33.7195 39.8015C34.3453 39.1195 34.493 38.1703 34.1133 37.3265C33.9164 36.8835 33.5016 36.4335 33.1219 36.2367C33.0094 36.1804 31.6664 35.7656 30.1406 35.3156L27.3633 34.5H24.1781H21V33.9515C21 33.4312 20.9859 33.389 20.782 33.1921L20.5711 32.9882L18.8344 32.9742C17.8781 32.9671 17.0273 32.9882 16.95 33.0234ZM19.4531 38.2617V41.9531H18.75H18.0469V38.2617V34.5703H18.75H19.4531V38.2617Z" fill="white"/>
</svg>
