<svg width="60" height="60" viewBox="0 0 60 60" fill="none" xmlns="http://www.w3.org/2000/svg">
<rect width="60" height="60" rx="8" fill="#F48C06"/>
<path d="M29.0152 14.8195C26.2871 14.9812 24.48 15.9375 23.6644 17.6531C23.116 18.7992 22.9754 19.8961 23.1019 21.9422C23.1441 22.6804 23.1793 23.5453 23.1793 23.8547C23.1793 24.8109 22.898 26.0203 22.3215 27.5531C22.0754 28.2211 22.0472 28.3406 22.1175 28.5164C22.223 28.7554 22.7785 29.0789 24.6418 29.9859L25.9285 30.6117L25.38 30.6961C24.1496 30.8859 23.2425 31.2375 22.3707 31.8633C21.8293 32.25 21.0418 33.0867 20.7254 33.614C20.3949 34.1625 18.0746 39.2812 17.934 39.7594C17.7582 40.35 17.8215 41.1023 18.1027 41.6929C18.3347 42.1992 18.848 42.7687 19.2488 42.9797C19.6215 43.1695 23.3972 44.5265 24.2269 44.7656C26.0902 45.3 27.8832 45.5531 29.9293 45.5531C32.0105 45.5531 33.5433 45.3633 35.4136 44.857C36.3699 44.6039 40.0824 43.282 40.6519 43.0008C41.0527 42.7969 41.6152 42.2203 41.8402 41.7773C42.1004 41.25 42.2058 40.575 42.1074 40.0406C42.016 39.5625 39.8222 34.5281 39.3511 33.7265C38.8519 32.8758 38.0152 32.0461 37.1714 31.5539C36.4754 31.1461 35.8707 30.9351 34.9004 30.7523L34.0144 30.5906L34.7668 30.2531C35.8496 29.7679 37.53 28.875 37.7129 28.6922C37.9379 28.4672 37.9168 28.2914 37.5933 27.4617C37.3121 26.7375 37.1011 26.0484 36.9113 25.2539C36.841 24.9586 36.7918 24.0726 36.7496 22.3711C36.6933 19.8117 36.6511 19.3828 36.3629 18.4828C36.0535 17.4984 35.4629 16.8164 34.7175 16.5914C34.4996 16.5211 34.2957 16.4226 34.2605 16.3594C34.2254 16.3031 34.0496 16.1062 33.8597 15.9234C33.2691 15.3469 32.1511 14.925 30.998 14.8476C30.7027 14.8265 30.33 14.7984 30.1754 14.7844C30.0207 14.7773 29.5004 14.7914 29.0152 14.8195ZM30.6746 16.0078C32.1511 16.1414 33.0511 16.5562 33.3394 17.2453C33.4519 17.5125 33.5785 17.5898 34.0074 17.6601C34.4996 17.7375 34.809 17.9765 35.055 18.4828C35.3644 19.1156 35.4839 19.7484 35.5332 21.0211L35.5754 22.132L35.3293 22.0195C35.2027 21.9562 35.055 21.8156 35.0058 21.7172C34.9496 21.5976 34.4855 21.225 33.705 20.6976C32.5308 19.889 32.4886 19.8679 32.1933 19.9031C31.9754 19.9312 31.7715 20.0367 31.4902 20.2547C30.3371 21.1617 28.2558 21.6258 26.2027 21.4289C25.2605 21.3375 25.155 21.3656 24.9441 21.7101C24.8738 21.8226 24.705 21.9773 24.5644 22.0476L24.3183 22.1742L24.2621 21.5765C24.1566 20.2969 24.3675 18.8554 24.7754 18.0961C25.4152 16.9008 26.9129 16.1554 28.9449 16.0148C29.3879 15.9867 29.7886 15.9515 29.8238 15.9515C29.866 15.9445 30.2457 15.9726 30.6746 16.0078ZM33.1355 21.7875L33.8668 22.2867V23.8125C33.8668 25.0992 33.8457 25.4226 33.7261 25.8937C33.3183 27.5039 32.1722 28.8258 30.8152 29.2406C29.7113 29.5781 28.5019 29.2125 27.5386 28.2492C26.9691 27.6797 26.6105 27.089 26.3222 26.2383C26.1183 25.6265 26.1113 25.5492 26.0761 24.1289L26.048 22.6523L27.1941 22.6453C28.8886 22.6312 30.091 22.3922 31.23 21.8367C31.5394 21.689 31.891 21.4851 32.0035 21.3867C32.123 21.2953 32.2566 21.232 32.3058 21.2461C32.3621 21.2672 32.7347 21.5062 33.1355 21.7875ZM35.4839 23.8828C35.6246 24.389 35.4839 25.0289 35.1816 25.282C35.0691 25.3664 35.0621 25.2961 35.0621 24.2976L35.0691 23.2148L35.2379 23.4258C35.3363 23.5383 35.4488 23.7492 35.4839 23.8828ZM25.0777 26.7656C25.1621 26.7656 25.2605 26.8992 25.4011 27.2297C25.5136 27.4898 25.7879 27.9679 26.0129 28.2914C26.3996 28.8469 26.4136 28.9031 26.3644 29.1633L26.3082 29.4375L25.3449 28.9875C24.0863 28.4039 23.4464 28.0383 23.4816 27.9398C23.5097 27.8625 23.9246 26.5687 23.9879 26.3648C24.0089 26.3086 24.1707 26.3578 24.48 26.5195C24.7402 26.6531 25.0074 26.7656 25.0777 26.7656ZM36.1941 27.1312C36.3418 27.5672 36.4613 27.9609 36.4683 28.0031C36.4683 28.0664 33.7683 29.4375 33.6418 29.4375C33.6207 29.4375 33.5855 29.3039 33.5715 29.1422C33.5433 28.875 33.5785 28.7906 33.9019 28.3476C34.0988 28.0664 34.366 27.6094 34.4996 27.314C34.7316 26.8008 34.7457 26.7797 35.0691 26.7023C35.2449 26.6531 35.498 26.5406 35.6316 26.4492C35.7652 26.3648 35.8847 26.3015 35.8988 26.3156C35.9129 26.3297 36.0464 26.6953 36.1941 27.1312ZM27.6511 29.8523C27.6863 29.8945 27.9113 30.014 28.1504 30.1336C29.3316 30.7172 30.6816 30.6961 31.9191 30.0773L32.4465 29.8101L32.4886 30.0281C32.5097 30.1476 32.5449 30.4219 32.566 30.6328L32.6082 31.0195L31.3074 32.3203L29.9996 33.6211L28.6636 32.2851L27.3347 30.9492L27.4121 30.3656C27.4824 29.7961 27.5175 29.7258 27.6511 29.8523ZM24.923 32.7211C24.0652 34.1484 24.0652 34.1554 25.3871 34.8234C25.8933 35.0836 26.3152 35.3015 26.3293 35.3086C26.3433 35.3226 26.1394 35.7586 25.8722 36.2859C25.4504 37.1367 25.4082 37.2633 25.4714 37.439C25.5488 37.6429 29.4793 43.289 29.6058 43.3804C29.7605 43.4859 30.0207 43.5211 30.1965 43.4578C30.4566 43.3664 34.4996 37.5797 34.4996 37.3054C34.4996 37.1929 34.2957 36.6937 34.0496 36.2015L33.5996 35.3015L34.5136 34.8445C35.0199 34.5984 35.4699 34.3312 35.5261 34.2539C35.716 33.9867 35.6386 33.7336 35.0972 32.8336C34.8019 32.3484 34.5769 31.9406 34.591 31.9265C34.6402 31.8703 35.723 32.1797 36.1027 32.3554C36.9324 32.7351 37.6918 33.4031 38.2121 34.2047C38.3597 34.4297 39.0277 35.85 39.7027 37.3547C40.8629 39.9422 40.9261 40.1109 40.9261 40.5187C40.9261 41.025 40.7222 41.4398 40.3285 41.7562C40.1105 41.932 37.8254 42.8461 37.7621 42.7828C37.755 42.7687 37.516 41.6086 37.2418 40.1953C36.9605 38.782 36.6863 37.5586 36.6371 37.4742C36.4261 37.1367 35.7793 37.214 35.6175 37.6008C35.5472 37.7836 35.6035 38.1422 36.0746 40.4976C36.3699 41.9672 36.5879 43.1976 36.5527 43.2258C36.4613 43.3101 35.3925 43.6336 34.4996 43.8515C31.0824 44.6672 27.405 44.5336 24.0863 43.4578L23.341 43.2187L23.8543 40.6383C24.1425 39.2179 24.3746 37.9523 24.3746 37.8187C24.3746 37.3195 23.805 37.0734 23.4254 37.4039C23.2496 37.5515 23.2004 37.7484 22.7152 40.1531C22.4269 41.5804 22.1879 42.7547 22.1738 42.7687C22.1457 42.7969 20.1347 42.0515 19.8816 41.925C19.5722 41.7633 19.1855 41.2851 19.0941 40.9547C18.9465 40.3851 19.0238 40.1461 20.2965 37.3476C20.9574 35.8781 21.6183 34.4859 21.7589 34.2539C22.0824 33.7195 22.884 32.9179 23.4113 32.6086C23.9527 32.2922 24.7683 31.9969 25.373 31.9054C25.4011 31.8984 25.1972 32.2711 24.923 32.7211ZM29.3527 37.8328L29.3316 40.9195L28.0379 39.0703L26.7441 37.2211L27.2433 36.2086C27.7496 35.2031 27.8129 34.964 27.6793 34.7039C27.6371 34.6265 27.1941 34.3664 26.6949 34.1133L25.7879 33.6562L26.2519 32.8758L26.716 32.1023L28.0449 33.4242L29.3668 34.7461L29.3527 37.8328ZM33.7261 32.9179C33.9652 33.3258 34.155 33.6703 34.141 33.6844C34.1269 33.6984 33.7261 33.9023 33.255 34.1414C32.3972 34.5633 32.1793 34.7531 32.1793 35.0344C32.1793 35.1187 32.4043 35.639 32.6785 36.1945C33.03 36.9047 33.1566 37.2351 33.1144 37.3195C33.0863 37.3828 32.5027 38.2265 31.8277 39.1969L30.5972 40.9476L30.5761 37.8469L30.5621 34.7461L31.8769 33.4312C32.6011 32.707 33.2129 32.1304 33.241 32.1445C33.2691 32.1656 33.4871 32.5101 33.7261 32.9179Z" fill="white"/>
</svg>
